<svg width="321" height="606" viewBox="0 0 321 606" fill="none" xmlns="http://www.w3.org/2000/svg">
<rect opacity="0.1" y="499.116" width="319.043" height="88.0793" fill="#EB5545"/>
<rect opacity="0.1" y="5.87195" width="319.043" height="236.835" fill="url(#paint0_linear_51_285)"/>
<rect opacity="0.1" y="252.494" width="319.043" height="236.835" fill="#F1A33B"/>
<path d="M32.7392 57.7542C34.2887 57.7542 35.6548 57.484 36.8373 56.9437C38.0199 56.4034 38.9424 55.6592 39.6051 54.7112C40.2779 53.7529 40.6143 52.657 40.6143 51.4235V51.3929C40.6143 50.4652 40.4053 49.614 39.9874 48.8392C39.5694 48.0542 38.9934 47.3916 38.2594 46.8513C37.5254 46.311 36.6742 45.9389 35.7057 45.735V45.6891C36.9494 45.3425 37.9434 44.736 38.6876 43.8695C39.442 42.9927 39.8192 41.958 39.8192 40.7653V40.7347C39.8192 39.6235 39.5133 38.6397 38.9017 37.7834C38.3002 36.9169 37.4643 36.2339 36.3939 35.7344C35.3336 35.2348 34.1154 34.9851 32.7392 34.9851C31.3731 34.9851 30.1549 35.2348 29.0845 35.7344C28.0243 36.2339 27.1883 36.9169 26.5767 37.7834C25.9752 38.6397 25.6745 39.6235 25.6745 40.7347V40.7653C25.6745 41.958 26.0517 42.9927 26.8061 43.8695C27.5604 44.736 28.5544 45.3425 29.7879 45.6891V45.735C28.8296 45.9389 27.9784 46.311 27.2342 46.8513C26.5002 47.3916 25.9242 48.0542 25.5063 48.8392C25.0883 49.614 24.8793 50.4652 24.8793 51.3929V51.4235C24.8793 52.657 25.2157 53.7529 25.8886 54.7112C26.5614 55.6592 27.4891 56.4034 28.6716 56.9437C29.8542 57.484 31.21 57.7542 32.7392 57.7542ZM32.7392 55.9192C31.6178 55.9192 30.6238 55.7204 29.7573 55.3228C28.8908 54.9252 28.2129 54.3798 27.7235 53.6866C27.2342 52.9934 26.9896 52.1982 26.9896 51.3011V51.2706C26.9896 50.3836 27.2342 49.6038 27.7235 48.931C28.2129 48.2479 28.8908 47.7127 29.7573 47.3253C30.6238 46.938 31.6178 46.7443 32.7392 46.7443C33.8809 46.7443 34.88 46.938 35.7363 47.3253C36.6028 47.7127 37.2808 48.2479 37.7701 48.931C38.2594 49.6038 38.5041 50.3836 38.5041 51.2706V51.3011C38.5041 52.1982 38.2594 52.9934 37.7701 53.6866C37.2808 54.3798 36.6028 54.9252 35.7363 55.3228C34.88 55.7204 33.8809 55.9192 32.7392 55.9192ZM32.7392 44.894C31.7605 44.894 30.894 44.7258 30.1396 44.3894C29.3954 44.053 28.8092 43.584 28.3811 42.9825C27.9529 42.3811 27.7388 41.6981 27.7388 40.9335V40.9029C27.7388 40.1077 27.9478 39.4043 28.3658 38.7927C28.794 38.1708 29.3852 37.6815 30.1396 37.3247C30.894 36.9679 31.7605 36.7895 32.7392 36.7895C33.728 36.7895 34.5996 36.9679 35.354 37.3247C36.1084 37.6815 36.6946 38.1708 37.1126 38.7927C37.5407 39.4043 37.7548 40.1077 37.7548 40.9029V40.9335C37.7548 41.6981 37.5407 42.3811 37.1126 42.9825C36.6844 43.584 36.0931 44.053 35.3387 44.3894C34.5945 44.7258 33.728 44.894 32.7392 44.894ZM44.0561 54.023C44.4537 54.023 44.785 53.8854 45.0501 53.6102C45.3253 53.3349 45.463 52.9985 45.463 52.6009C45.463 52.2033 45.3253 51.872 45.0501 51.607C44.785 51.3317 44.4537 51.1941 44.0561 51.1941C43.6586 51.1941 43.3221 51.3317 43.0469 51.607C42.7716 51.872 42.634 52.2033 42.634 52.6009C42.634 52.9985 42.7716 53.3349 43.0469 53.6102C43.3221 53.8854 43.6586 54.023 44.0561 54.023ZM44.0561 41.5451C44.4537 41.5451 44.785 41.4075 45.0501 41.1323C45.3253 40.857 45.463 40.5257 45.463 40.1383C45.463 39.7407 45.3253 39.4043 45.0501 39.1291C44.785 38.8538 44.4537 38.7162 44.0561 38.7162C43.6586 38.7162 43.3221 38.8538 43.0469 39.1291C42.7716 39.4043 42.634 39.7407 42.634 40.1383C42.634 40.5257 42.7716 40.857 43.0469 41.1323C43.3221 41.4075 43.6586 41.5451 44.0561 41.5451ZM58.4314 57.4025H60.4499V52.4021H63.7376V50.5671H60.4499V35.3368H57.4069C56.734 36.346 56.0561 37.3604 55.3731 38.3798C54.6901 39.389 54.0122 40.3983 53.3393 41.4075C52.6665 42.4168 51.9886 43.4311 51.3056 44.4505C50.6225 45.4598 49.9395 46.469 49.2565 47.4783C48.5837 48.4875 47.9108 49.5018 47.238 50.5213V52.4021H58.4314V57.4025ZM49.3329 50.5671V50.5213C49.9344 49.6242 50.5359 48.7322 51.1373 47.8453C51.7388 46.9583 52.3403 46.0714 52.9417 45.1845C53.5432 44.2976 54.1447 43.4107 54.7461 42.5238C55.3476 41.6369 55.9491 40.7551 56.5505 39.8784C57.152 38.9915 57.7535 38.0994 58.355 37.2023H58.4314V50.5671H49.3329ZM72.6538 57.7542C74.1523 57.7542 75.4827 57.4381 76.6449 56.8061C77.8172 56.1639 78.7347 55.282 79.3973 54.1607C80.06 53.0393 80.3913 51.7548 80.3913 50.3072V50.2766C80.3913 48.8698 80.0753 47.621 79.4432 46.5302C78.8214 45.4292 77.9599 44.5627 76.8589 43.9306C75.7579 43.2986 74.5091 42.9825 73.1125 42.9825C72.3581 42.9825 71.6394 43.0845 70.9564 43.2884C70.2836 43.4821 69.6719 43.7675 69.1214 44.1447C68.5709 44.5117 68.1122 44.9653 67.7452 45.5056H67.684L68.5709 37.2023H79.0762V35.3368H66.843L65.6502 47.7076H67.5311C67.6534 47.4935 67.786 47.2948 67.9287 47.1113C68.0816 46.9278 68.2345 46.7545 68.3874 46.5913C68.9379 46.0001 69.5853 45.5515 70.3294 45.2457C71.0838 44.9399 71.8994 44.7869 72.7761 44.7869C73.8363 44.7869 74.7844 45.0265 75.6203 45.5056C76.4563 45.9848 77.1138 46.6423 77.5929 47.4783C78.0721 48.3142 78.3116 49.2623 78.3116 50.3225V50.3531C78.3116 51.4337 78.0721 52.3919 77.5929 53.2279C77.1138 54.0638 76.4461 54.7213 75.5897 55.2005C74.7436 55.6796 73.7751 55.9192 72.6843 55.9192C71.7363 55.9192 70.8748 55.7357 70.1001 55.3687C69.3253 55.0017 68.6933 54.5073 68.2039 53.8854C67.7146 53.2534 67.419 52.55 67.317 51.7752L67.3017 51.6528H65.2527L65.2679 51.8058C65.3801 52.9373 65.7675 53.9517 66.4301 54.8488C67.0927 55.7459 67.9593 56.4544 69.0297 56.9743C70.1001 57.4942 71.3081 57.7542 72.6538 57.7542ZM86.7385 57.693C87.5235 57.693 88.2676 57.5605 88.9711 57.2954C89.6745 57.0202 90.2963 56.643 90.8366 56.1639C91.3769 55.6847 91.7898 55.124 92.0752 54.4818H92.1211V57.4025H94.1396V46.5149C94.1396 45.4343 93.8949 44.4964 93.4056 43.7012C92.9265 42.9061 92.2434 42.2944 91.3565 41.8663C90.4798 41.4279 89.4349 41.2087 88.2218 41.2087C87.029 41.2087 85.9892 41.4126 85.1023 41.8204C84.2154 42.218 83.512 42.7685 82.9921 43.4719C82.4722 44.1753 82.1612 44.9857 82.0593 45.9032L82.044 46.0867H83.986L84.0166 45.9338C84.1899 45.0265 84.6385 44.3129 85.3623 43.793C86.0963 43.2731 87.0392 43.0131 88.1912 43.0131C89.4349 43.0131 90.3983 43.3393 91.0813 43.9918C91.7745 44.6442 92.1211 45.5464 92.1211 46.6984V51.4235C92.1211 52.2696 91.8968 53.0342 91.4483 53.7172C91.0099 54.4002 90.4136 54.9405 89.6592 55.3381C88.915 55.7255 88.074 55.9192 87.1361 55.9192C86.0657 55.9192 85.194 55.6541 84.5212 55.124C83.8484 54.5837 83.512 53.8752 83.512 52.9985V52.9679C83.512 52.0912 83.8484 51.398 84.5212 50.8883C85.2042 50.3684 86.1676 50.0625 87.4113 49.9708L93.1304 49.5885V48.0135L87.1667 48.3957C85.9535 48.4671 84.9188 48.6965 84.0625 49.0839C83.2163 49.4611 82.569 49.9759 82.1205 50.6283C81.6821 51.2808 81.4629 52.0606 81.4629 52.9679V52.9985C81.4629 53.9262 81.6821 54.7468 82.1205 55.4604C82.569 56.1639 83.1909 56.7143 83.986 57.1119C84.7812 57.4993 85.6987 57.693 86.7385 57.693ZM96.2816 57.4025H98.3001V47.6465C98.3001 46.729 98.4734 45.9236 98.82 45.2304C99.1666 44.5372 99.6407 43.9969 100.242 43.6095C100.844 43.2119 101.537 43.0131 102.322 43.0131C103.046 43.0131 103.678 43.1711 104.218 43.4872C104.768 43.8032 105.197 44.2466 105.502 44.8175C105.808 45.3782 105.961 46.0409 105.961 46.8054V57.4025H107.98V47.3865C107.98 46.5302 108.148 45.7758 108.484 45.1234C108.821 44.4607 109.29 43.9459 109.891 43.5789C110.493 43.2017 111.186 43.0131 111.971 43.0131C112.746 43.0131 113.403 43.1711 113.943 43.4872C114.494 43.8032 114.917 44.2619 115.213 44.8634C115.508 45.4547 115.656 46.1632 115.656 46.9889V57.4025H117.675V46.5302C117.675 45.4496 117.46 44.5168 117.032 43.7318C116.604 42.9367 116.003 42.3199 115.228 41.8816C114.463 41.4432 113.561 41.224 112.521 41.224C111.716 41.224 110.982 41.3667 110.319 41.6522C109.657 41.9376 109.086 42.3352 108.607 42.8449C108.138 43.3444 107.776 43.9255 107.521 44.5882H107.46C107.266 43.9153 106.955 43.3292 106.527 42.8296C106.099 42.3199 105.574 41.9274 104.952 41.6522C104.34 41.3667 103.642 41.224 102.857 41.224C101.746 41.224 100.798 41.5095 100.013 42.0803C99.2278 42.641 98.6722 43.3648 98.346 44.2517H98.3001V41.4993H96.2816V57.4025Z" fill="black"/>
<path d="M32.7086 281.607C31.2406 281.607 29.9306 281.933 28.7787 282.586C27.6267 283.238 26.7143 284.125 26.0415 285.246C25.3788 286.368 25.0475 287.647 25.0475 289.085V289.115C25.0475 290.502 25.3687 291.745 26.0109 292.846C26.6531 293.947 27.5248 294.819 28.6258 295.461C29.7369 296.093 30.9857 296.409 32.3722 296.409C33.4324 296.409 34.4009 296.226 35.2776 295.859C36.1543 295.482 36.8985 294.982 37.5101 294.36C38.132 293.728 38.5805 293.025 38.8558 292.25H39.1616V289.222H38.3359V289.237C38.3359 290.237 38.081 291.139 37.5713 291.944C37.0718 292.749 36.3939 293.387 35.5375 293.856C34.6914 294.324 33.7484 294.559 32.7086 294.559C31.6484 294.559 30.7003 294.324 29.8644 293.856C29.0284 293.376 28.3658 292.724 27.8765 291.898C27.3973 291.072 27.1578 290.135 27.1578 289.085V289.054C27.1578 288.004 27.4024 287.061 27.8918 286.225C28.3913 285.379 29.059 284.711 29.8949 284.222C30.7411 283.722 31.6841 283.473 32.7239 283.473C33.7943 283.473 34.7526 283.733 35.5987 284.252C36.4448 284.762 37.1126 285.455 37.6019 286.332C38.0912 287.199 38.3359 288.162 38.3359 289.222L38.917 292.158C38.917 292.281 38.917 292.403 38.917 292.525C38.917 292.648 38.917 292.77 38.917 292.892C38.8864 294.646 38.6468 296.251 38.1983 297.709C37.7497 299.167 37.0667 300.334 36.1492 301.211C35.2317 302.087 34.039 302.526 32.571 302.526C31.735 302.526 30.9756 302.383 30.2925 302.098C29.6197 301.802 29.0539 301.394 28.5952 300.874C28.1364 300.354 27.8051 299.748 27.6012 299.055L27.5553 298.886H25.4451L25.4757 299.085C25.7 300.115 26.1332 301.027 26.7755 301.822C27.4279 302.618 28.2435 303.245 29.2221 303.703C30.211 304.152 31.3222 304.376 32.5557 304.376C34.2989 304.376 35.7924 303.902 37.0361 302.954C38.29 302.006 39.2534 300.64 39.9262 298.856C40.599 297.062 40.9354 294.911 40.9354 292.403V292.372C40.9354 290.446 40.7112 288.804 40.2626 287.448C39.8141 286.093 39.2024 284.986 38.4276 284.13C37.6529 283.264 36.771 282.626 35.7822 282.219C34.8035 281.811 33.779 281.607 32.7086 281.607ZM44.362 300.645C44.7595 300.645 45.0909 300.507 45.3559 300.232C45.6312 299.957 45.7688 299.62 45.7688 299.223C45.7688 298.825 45.6312 298.494 45.3559 298.229C45.0909 297.954 44.7595 297.816 44.362 297.816C43.9644 297.816 43.628 297.954 43.3527 298.229C43.0775 298.494 42.9399 298.825 42.9399 299.223C42.9399 299.62 43.0775 299.957 43.3527 300.232C43.628 300.507 43.9644 300.645 44.362 300.645ZM44.362 288.167C44.7595 288.167 45.0909 288.029 45.3559 287.754C45.6312 287.479 45.7688 287.148 45.7688 286.76C45.7688 286.363 45.6312 286.026 45.3559 285.751C45.0909 285.476 44.7595 285.338 44.362 285.338C43.9644 285.338 43.628 285.476 43.3527 285.751C43.0775 286.026 42.9399 286.363 42.9399 286.76C42.9399 287.148 43.0775 287.479 43.3527 287.754C43.628 288.029 43.9644 288.167 44.362 288.167ZM55.7248 304.376C57.3865 304.376 58.8137 303.917 60.0064 303C61.1992 302.072 62.1116 300.762 62.7436 299.07C63.3859 297.367 63.707 295.349 63.707 293.015V292.969C63.707 290.644 63.3859 288.631 62.7436 286.928C62.1116 285.226 61.1992 283.916 60.0064 282.999C58.8137 282.071 57.3865 281.607 55.7248 281.607C54.0631 281.607 52.6359 282.071 51.4432 282.999C50.2606 283.916 49.3482 285.226 48.706 286.928C48.0739 288.621 47.7579 290.634 47.7579 292.969V293.015C47.7579 295.339 48.0739 297.352 48.706 299.055C49.3482 300.747 50.2606 302.057 51.4432 302.985C52.6359 303.912 54.0631 304.376 55.7248 304.376ZM55.7248 302.541C54.4913 302.541 53.4362 302.154 52.5595 301.379C51.6827 300.604 51.0099 299.503 50.541 298.076C50.0822 296.649 49.8529 294.962 49.8529 293.015V292.969C49.8529 291.022 50.0822 289.334 50.541 287.907C51.0099 286.48 51.6827 285.379 52.5595 284.604C53.4362 283.829 54.4913 283.442 55.7248 283.442C56.9583 283.442 58.0134 283.829 58.8902 284.604C59.7771 285.379 60.455 286.48 60.9239 287.907C61.3929 289.324 61.6273 291.011 61.6273 292.969V293.015C61.6273 294.962 61.3929 296.649 60.9239 298.076C60.455 299.503 59.7771 300.604 58.8902 301.379C58.0134 302.154 56.9583 302.541 55.7248 302.541ZM71.0329 304.024H73.0361V281.959H71.0023L65.0539 286.042V288.152L70.9717 284.191H71.0329V304.024ZM81.8452 304.315C82.6302 304.315 83.3744 304.182 84.0778 303.917C84.7812 303.642 85.403 303.265 85.9433 302.786C86.4836 302.307 86.8965 301.746 87.182 301.104H87.2278V304.024H89.2463V293.137C89.2463 292.056 89.0016 291.118 88.5123 290.323C88.0332 289.528 87.3502 288.916 86.4632 288.488C85.5865 288.05 84.5416 287.831 83.3285 287.831C82.1357 287.831 81.0959 288.035 80.209 288.442C79.3221 288.84 78.6187 289.39 78.0988 290.094C77.5789 290.797 77.2679 291.608 77.166 292.525L77.1507 292.709H79.0927L79.1233 292.556C79.2966 291.648 79.7452 290.935 80.469 290.415C81.203 289.895 82.1459 289.635 83.2979 289.635C84.5416 289.635 85.505 289.961 86.188 290.614C86.8812 291.266 87.2278 292.168 87.2278 293.32V298.045C87.2278 298.892 87.0035 299.656 86.555 300.339C86.1166 301.022 85.5203 301.562 84.7659 301.96C84.0217 302.347 83.1807 302.541 82.2428 302.541C81.1724 302.541 80.3008 302.276 79.6279 301.746C78.9551 301.206 78.6187 300.497 78.6187 299.62V299.59C78.6187 298.713 78.9551 298.02 79.6279 297.51C80.311 296.99 81.2743 296.684 82.518 296.593L88.2371 296.21V294.635L82.2734 295.018C81.0602 295.089 80.0255 295.318 79.1692 295.706C78.3231 296.083 77.6757 296.598 77.2272 297.25C76.7888 297.903 76.5696 298.683 76.5696 299.59V299.62C76.5696 300.548 76.7888 301.369 77.2272 302.082C77.6757 302.786 78.2976 303.336 79.0927 303.734C79.8879 304.121 80.8054 304.315 81.8452 304.315ZM91.3883 304.024H93.4068V294.268C93.4068 293.351 93.5801 292.546 93.9267 291.852C94.2734 291.159 94.7474 290.619 95.3489 290.231C95.9503 289.834 96.6435 289.635 97.4285 289.635C98.1523 289.635 98.7844 289.793 99.3247 290.109C99.8752 290.425 100.303 290.869 100.609 291.439C100.915 292 101.068 292.663 101.068 293.427V304.024H103.086V294.008C103.086 293.152 103.255 292.398 103.591 291.745C103.927 291.083 104.396 290.568 104.998 290.201C105.599 289.824 106.293 289.635 107.077 289.635C107.852 289.635 108.51 289.793 109.05 290.109C109.601 290.425 110.024 290.884 110.319 291.485C110.615 292.077 110.763 292.785 110.763 293.611V304.024H112.781V293.152C112.781 292.072 112.567 291.139 112.139 290.354C111.711 289.559 111.109 288.942 110.335 288.504C109.57 288.065 108.668 287.846 107.628 287.846C106.823 287.846 106.089 287.989 105.426 288.274C104.763 288.56 104.192 288.957 103.713 289.467C103.244 289.966 102.882 290.547 102.628 291.21H102.566C102.373 290.537 102.062 289.951 101.634 289.452C101.206 288.942 100.681 288.549 100.059 288.274C99.447 287.989 98.7487 287.846 97.9637 287.846C96.8525 287.846 95.9044 288.131 95.1195 288.702C94.3345 289.263 93.7789 289.987 93.4527 290.874H93.4068V288.121H91.3883V304.024Z" fill="black"/>
<path d="M32.7086 528.229C31.2406 528.229 29.9306 528.555 28.7787 529.208C27.6267 529.86 26.7143 530.747 26.0415 531.868C25.3788 532.99 25.0475 534.269 25.0475 535.707V535.737C25.0475 537.124 25.3687 538.367 26.0109 539.468C26.6531 540.569 27.5248 541.441 28.6258 542.083C29.7369 542.715 30.9857 543.031 32.3722 543.031C33.4324 543.031 34.4009 542.848 35.2776 542.481C36.1543 542.104 36.8985 541.604 37.5101 540.982C38.132 540.35 38.5805 539.647 38.8558 538.872H39.1616V535.844H38.3359V535.86C38.3359 536.859 38.081 537.761 37.5713 538.566C37.0718 539.372 36.3939 540.009 35.5375 540.478C34.6914 540.947 33.7484 541.181 32.7086 541.181C31.6484 541.181 30.7003 540.947 29.8644 540.478C29.0284 539.998 28.3658 539.346 27.8765 538.52C27.3973 537.695 27.1578 536.757 27.1578 535.707V535.676C27.1578 534.626 27.4024 533.683 27.8918 532.847C28.3913 532.001 29.059 531.333 29.8949 530.844C30.7411 530.344 31.6841 530.095 32.7239 530.095C33.7943 530.095 34.7526 530.355 35.5987 530.875C36.4448 531.384 37.1126 532.077 37.6019 532.954C38.0912 533.821 38.3359 534.784 38.3359 535.844L38.917 538.78C38.917 538.903 38.917 539.025 38.917 539.147C38.917 539.27 38.917 539.392 38.917 539.514C38.8864 541.268 38.6468 542.873 38.1983 544.331C37.7497 545.789 37.0667 546.956 36.1492 547.833C35.2317 548.71 34.039 549.148 32.571 549.148C31.735 549.148 30.9756 549.005 30.2925 548.72C29.6197 548.424 29.0539 548.016 28.5952 547.496C28.1364 546.977 27.8051 546.37 27.6012 545.677L27.5553 545.509H25.4451L25.4757 545.707C25.7 546.737 26.1332 547.649 26.7755 548.445C27.4279 549.24 28.2435 549.867 29.2221 550.325C30.211 550.774 31.3222 550.998 32.5557 550.998C34.2989 550.998 35.7924 550.524 37.0361 549.576C38.29 548.628 39.2534 547.262 39.9262 545.478C40.599 543.684 40.9354 541.533 40.9354 539.025V538.994C40.9354 537.068 40.7112 535.426 40.2626 534.07C39.8141 532.715 39.2024 531.609 38.4276 530.752C37.6529 529.886 36.771 529.249 35.7822 528.841C34.8035 528.433 33.779 528.229 32.7086 528.229ZM44.362 547.267C44.7595 547.267 45.0909 547.129 45.3559 546.854C45.6312 546.579 45.7688 546.243 45.7688 545.845C45.7688 545.447 45.6312 545.116 45.3559 544.851C45.0909 544.576 44.7595 544.438 44.362 544.438C43.9644 544.438 43.628 544.576 43.3527 544.851C43.0775 545.116 42.9399 545.447 42.9399 545.845C42.9399 546.243 43.0775 546.579 43.3527 546.854C43.628 547.129 43.9644 547.267 44.362 547.267ZM44.362 534.789C44.7595 534.789 45.0909 534.652 45.3559 534.376C45.6312 534.101 45.7688 533.77 45.7688 533.382C45.7688 532.985 45.6312 532.648 45.3559 532.373C45.0909 532.098 44.7595 531.96 44.362 531.96C43.9644 531.96 43.628 532.098 43.3527 532.373C43.0775 532.648 42.9399 532.985 42.9399 533.382C42.9399 533.77 43.0775 534.101 43.3527 534.376C43.628 534.652 43.9644 534.789 44.362 534.789ZM53.8134 550.646H55.8166V528.581H53.7828L47.8344 532.664V534.774L53.7522 530.813H53.8134V550.646ZM67.9134 550.998C69.3814 550.998 70.6863 550.672 71.828 550.02C72.98 549.367 73.8873 548.48 74.5499 547.359C75.2227 546.227 75.5592 544.948 75.5592 543.521V543.49C75.5592 542.093 75.238 540.85 74.5958 539.759C73.9637 538.658 73.0972 537.791 71.9962 537.159C70.8952 536.517 69.6413 536.196 68.2345 536.196C67.1845 536.196 66.2211 536.385 65.3444 536.762C64.4677 537.129 63.7184 537.628 63.0966 538.26C62.4849 538.882 62.0363 539.581 61.7509 540.355H61.4604V543.383H62.2861V543.368C62.2861 542.369 62.5359 541.466 63.0354 540.661C63.5349 539.856 64.2128 539.219 65.0692 538.75C65.9255 538.281 66.8736 538.046 67.9134 538.046C68.9736 538.046 69.9217 538.286 70.7576 538.765C71.5936 539.234 72.2511 539.881 72.7302 540.707C73.2094 541.533 73.4489 542.471 73.4489 543.521V543.551C73.4489 544.601 73.1992 545.549 72.6996 546.395C72.2103 547.231 71.5426 547.899 70.6964 548.399C69.8605 548.888 68.9277 549.133 67.8981 549.133C66.8277 549.133 65.8694 548.878 65.0233 548.368C64.1772 547.848 63.5094 547.155 63.0201 546.288C62.5308 545.412 62.2861 544.443 62.2861 543.383L61.6897 540.447C61.6897 540.325 61.6897 540.202 61.6897 540.08C61.6897 539.958 61.6948 539.835 61.705 539.713C61.7356 537.96 61.9701 536.354 62.4084 534.896C62.857 533.438 63.5451 532.271 64.4728 531.394C65.4005 530.518 66.5881 530.079 68.0357 530.079C68.8819 530.079 69.6413 530.227 70.3142 530.523C70.9972 530.808 71.5681 531.211 72.0268 531.731C72.4856 532.251 72.8169 532.857 73.0208 533.551L73.0666 533.719H75.1769L75.131 533.52C74.9169 532.49 74.4837 531.578 73.8312 530.783C73.189 529.977 72.3734 529.35 71.3846 528.902C70.4059 528.453 69.2998 528.229 68.0663 528.229C66.3231 528.229 64.8245 528.703 63.5706 529.651C62.3167 530.599 61.3533 531.97 60.6805 533.765C60.0179 535.549 59.6865 537.695 59.6865 540.202V540.233C59.6865 542.16 59.9108 543.801 60.3594 545.157C60.8079 546.513 61.4196 547.624 62.1944 548.49C62.9691 549.347 63.8458 549.979 64.8245 550.387C65.8134 550.794 66.843 550.998 67.9134 550.998ZM82.3345 550.937C83.1195 550.937 83.8637 550.804 84.5671 550.539C85.2705 550.264 85.8924 549.887 86.4327 549.408C86.973 548.929 87.3858 548.368 87.6713 547.726H87.7172V550.646H89.7356V539.759C89.7356 538.678 89.491 537.74 89.0016 536.945C88.5225 536.15 87.8395 535.538 86.9526 535.11C86.0759 534.672 85.0309 534.453 83.8178 534.453C82.6251 534.453 81.5852 534.657 80.6983 535.064C79.8114 535.462 79.108 536.012 78.5881 536.716C78.0682 537.419 77.7573 538.23 77.6553 539.147L77.64 539.331H79.5821L79.6126 539.178C79.7859 538.271 80.2345 537.557 80.9583 537.037C81.6923 536.517 82.6353 536.257 83.7872 536.257C85.0309 536.257 85.9943 536.583 86.6773 537.236C87.3705 537.888 87.7172 538.79 87.7172 539.942V544.667C87.7172 545.514 87.4929 546.278 87.0443 546.961C86.606 547.644 86.0096 548.185 85.2552 548.582C84.511 548.97 83.67 549.163 82.7321 549.163C81.6617 549.163 80.7901 548.898 80.1173 548.368C79.4444 547.828 79.108 547.119 79.108 546.243V546.212C79.108 545.335 79.4444 544.642 80.1173 544.132C80.8003 543.612 81.7636 543.307 83.0074 543.215L88.7264 542.833V541.257L82.7627 541.64C81.5496 541.711 80.5148 541.941 79.6585 542.328C78.8124 542.705 78.165 543.22 77.7165 543.872C77.2781 544.525 77.059 545.305 77.059 546.212V546.243C77.059 547.17 77.2781 547.991 77.7165 548.704C78.165 549.408 78.7869 549.958 79.5821 550.356C80.3772 550.743 81.2947 550.937 82.3345 550.937ZM91.8777 550.646H93.8962V540.89C93.8962 539.973 94.0695 539.168 94.4161 538.474C94.7627 537.781 95.2367 537.241 95.8382 536.854C96.4397 536.456 97.1329 536.257 97.9178 536.257C98.6416 536.257 99.2737 536.415 99.814 536.731C100.364 537.047 100.793 537.491 101.098 538.062C101.404 538.622 101.557 539.285 101.557 540.049V550.646H103.576V540.631C103.576 539.774 103.744 539.02 104.08 538.367C104.417 537.705 104.886 537.19 105.487 536.823C106.089 536.446 106.782 536.257 107.567 536.257C108.342 536.257 108.999 536.415 109.539 536.731C110.09 537.047 110.513 537.506 110.809 538.107C111.104 538.699 111.252 539.407 111.252 540.233V550.646H113.271V539.774C113.271 538.694 113.056 537.761 112.628 536.976C112.2 536.181 111.599 535.564 110.824 535.126C110.059 534.687 109.157 534.468 108.117 534.468C107.312 534.468 106.578 534.611 105.915 534.896C105.253 535.182 104.682 535.579 104.203 536.089C103.734 536.588 103.372 537.17 103.117 537.832H103.056C102.862 537.159 102.551 536.573 102.123 536.074C101.695 535.564 101.17 535.171 100.548 534.896C99.9363 534.611 99.238 534.468 98.453 534.468C97.3419 534.468 96.3938 534.753 95.6088 535.324C94.8239 535.885 94.2683 536.609 93.942 537.496H93.8962V534.743H91.8777V550.646Z" fill="black"/>
<rect x="168.329" y="5.87195" width="150.713" height="236.835" rx="31.3171" fill="#66CB67"/>
<path d="M208.346 63.481C206.016 63.481 203.819 63.035 201.756 62.143C199.705 61.251 197.893 60.0189 196.321 58.4468C194.749 56.8746 193.517 55.0627 192.625 53.0111C191.733 50.9483 191.287 48.7518 191.287 46.4214C191.287 44.091 191.733 41.9001 192.625 39.8484C193.517 37.7857 194.743 35.9682 196.304 34.3961C197.876 32.8239 199.688 31.5918 201.74 30.6998C203.802 29.8078 205.999 29.3618 208.329 29.3618C210.66 29.3618 212.856 29.8078 214.919 30.6998C216.982 31.5918 218.799 32.8239 220.372 34.3961C221.944 35.9682 223.176 37.7857 224.068 39.8484C224.96 41.9001 225.406 44.091 225.406 46.4214C225.406 48.7518 224.96 50.9483 224.068 53.0111C223.176 55.0627 221.944 56.8746 220.372 58.4468C218.799 60.0189 216.982 61.251 214.919 62.143C212.867 63.035 210.677 63.481 208.346 63.481ZM206.473 54.5833C206.763 54.5833 207.025 54.5164 207.259 54.3826C207.493 54.2488 207.699 54.0481 207.878 53.7805L215.739 41.3872C215.839 41.2199 215.934 41.0415 216.023 40.8519C216.112 40.6624 216.157 40.4728 216.157 40.2833C216.157 39.893 216.012 39.5864 215.722 39.3634C215.432 39.1293 215.109 39.0122 214.752 39.0122C214.261 39.0122 213.86 39.2686 213.548 39.7815L206.406 51.255L203.011 46.873C202.799 46.5942 202.593 46.4047 202.392 46.3043C202.202 46.204 201.985 46.1538 201.74 46.1538C201.361 46.1538 201.043 46.2932 200.786 46.5719C200.53 46.8395 200.402 47.1629 200.402 47.542C200.402 47.7315 200.435 47.9211 200.502 48.1106C200.58 48.2891 200.68 48.4619 200.803 48.6291L205.001 53.7805C205.224 54.0704 205.453 54.2766 205.687 54.3993C205.921 54.5219 206.183 54.5833 206.473 54.5833Z" fill="white"/>
<path d="M250.964 45.4858H253.726V50.0444H250.964V45.4858ZM238.786 43.8553H265.938V45.9849H238.786V43.8553ZM250.997 30.3127H253.726V33.9728H250.997V30.3127ZM250.864 34.239H253.293V34.7049C253.293 39.4298 247.67 41.9587 241.015 42.5244L240.217 40.3948C246.139 40.0288 250.864 37.9325 250.864 34.7049V34.239ZM251.43 34.239H253.859V34.7049C253.859 37.9325 258.584 40.0288 264.474 40.3948L263.675 42.5244C257.02 41.9587 251.43 39.4298 251.43 34.7049V34.239ZM241.548 33.141H263.176V35.2373H241.548V33.141ZM242.047 48.7134H262.477V55.335H244.842V58.9619H242.113V53.3718H259.749V50.8097H242.047V48.7134ZM242.113 58.1633H263.376V60.2596H242.113V58.1633ZM283.504 36.8012H290.625V39.0971H283.504V36.8012ZM275.551 32.0429H277.814V35.1707C277.814 40.9605 274.586 45.7187 269.529 47.6486L268.098 45.4525C272.623 43.7888 275.551 39.7626 275.551 35.1707V32.0429ZM276.051 32.0429H278.28V35.3038C278.28 39.4298 281.275 43.2897 285.6 44.8203L284.136 46.9831C279.311 45.153 276.051 40.5944 276.051 35.3038V32.0429ZM272.723 49.9445H292.788V60.5924H290.026V52.1739H272.723V49.9445ZM290.026 30.5123H292.788V48.2808H290.026V30.5123Z" fill="white"/>
<rect x="170.287" y="252.494" width="150.713" height="236.835" rx="31.3171" fill="#F1A33B"/>
<path d="M210.651 309.689C208.28 309.689 206.045 309.236 203.947 308.328C201.86 307.421 200.016 306.167 198.417 304.568C196.818 302.968 195.564 301.125 194.657 299.038C193.749 296.94 193.296 294.705 193.296 292.334C193.296 289.964 193.749 287.735 194.657 285.648C195.564 283.549 196.812 281.7 198.4 280.101C199.999 278.501 201.843 277.248 203.93 276.34C206.028 275.433 208.263 274.979 210.634 274.979C213.004 274.979 215.239 275.433 217.337 276.34C219.436 277.248 221.285 278.501 222.884 280.101C224.484 281.7 225.737 283.549 226.644 285.648C227.552 287.735 228.006 289.964 228.006 292.334C228.006 294.705 227.552 296.94 226.644 299.038C225.737 301.125 224.484 302.968 222.884 304.568C221.285 306.167 219.436 307.421 217.337 308.328C215.25 309.236 213.021 309.689 210.651 309.689ZM210.651 295.499C211.535 295.499 211.983 295.034 211.995 294.104L212.25 284.848C212.261 284.405 212.108 284.037 211.791 283.742C211.484 283.436 211.099 283.282 210.634 283.282C210.157 283.282 209.766 283.43 209.46 283.725C209.165 284.02 209.023 284.388 209.034 284.831L209.255 294.104C209.278 295.034 209.743 295.499 210.651 295.499ZM210.651 301.199C211.161 301.199 211.603 301.023 211.978 300.671C212.363 300.32 212.556 299.889 212.556 299.378C212.556 298.868 212.363 298.437 211.978 298.085C211.603 297.722 211.161 297.541 210.651 297.541C210.129 297.541 209.681 297.722 209.306 298.085C208.932 298.448 208.745 298.879 208.745 299.378C208.745 299.889 208.932 300.32 209.306 300.671C209.692 301.023 210.14 301.199 210.651 301.199Z" fill="white"/>
<path d="M248.696 281.427H250.925V286.318C250.925 292.673 247.098 299.062 242.307 301.425L240.71 299.228C245.069 297.165 248.696 291.509 248.696 286.318V281.427ZM249.228 281.427H251.457V286.318C251.457 291.409 255.084 296.6 259.51 298.496L257.946 300.693C253.088 298.43 249.228 292.574 249.228 286.318V281.427ZM241.708 280.195H258.512V282.525H241.708V280.195ZM262.571 277.134H265.333V307.214H262.571V277.134ZM290.586 277.134H293.347V294.77H290.586V277.134ZM292.582 284.721H297.806V287.05H292.582V284.721ZM282.267 279.064H285.162C285.162 286.651 279.871 292.074 271.087 294.47L269.955 292.307C277.742 290.178 282.267 285.819 282.267 280.262V279.064ZM271.286 279.064H283.798V281.294H271.286V279.064ZM273.815 296.167H293.347V307.214H290.586V298.397H273.815V296.167Z" fill="white"/>
<rect x="170.287" y="499.116" width="150.713" height="88.0793" rx="31.3171" fill="#EB5545"/>
<path d="M210.557 560.078C208.255 560.078 206.086 559.638 204.048 558.757C202.022 557.875 200.232 556.659 198.679 555.106C197.126 553.553 195.91 551.763 195.029 549.737C194.147 547.7 193.707 545.53 193.707 543.228C193.707 540.927 194.147 538.763 195.029 536.736C195.91 534.699 197.121 532.904 198.663 531.351C200.216 529.798 202.005 528.581 204.032 527.7C206.069 526.819 208.239 526.378 210.54 526.378C212.842 526.378 215.012 526.819 217.049 527.7C219.086 528.581 220.881 529.798 222.434 531.351C223.987 532.904 225.204 534.699 226.085 536.736C226.966 538.763 227.407 540.927 227.407 543.228C227.407 545.53 226.966 547.7 226.085 549.737C225.204 551.763 223.987 553.553 222.434 555.106C220.881 556.659 219.086 557.875 217.049 558.757C215.023 559.638 212.858 560.078 210.557 560.078ZM205.485 551.042C205.772 551.042 206.003 550.987 206.179 550.877C206.355 550.756 206.554 550.546 206.774 550.249L210.458 545.012H210.524L214.191 550.249C214.411 550.546 214.61 550.756 214.786 550.877C214.973 550.987 215.199 551.042 215.463 551.042C215.86 551.042 216.184 550.926 216.438 550.695C216.691 550.464 216.818 550.161 216.818 549.786C216.818 549.467 216.708 549.17 216.487 548.894L212.225 543.063L216.52 537.215C216.741 536.929 216.851 536.626 216.851 536.307C216.851 535.965 216.724 535.679 216.471 535.448C216.228 535.216 215.926 535.101 215.562 535.101C215.298 535.101 215.067 535.161 214.868 535.282C214.681 535.393 214.499 535.591 214.323 535.877L210.755 541.114H210.672L207.055 535.861C206.856 535.585 206.658 535.393 206.46 535.282C206.273 535.161 206.036 535.101 205.75 535.101C205.386 535.101 205.072 535.227 204.808 535.481C204.544 535.723 204.412 536.02 204.412 536.373C204.412 536.703 204.533 537.033 204.775 537.364L208.855 542.98L204.527 548.96C204.329 549.247 204.23 549.544 204.23 549.853C204.23 550.183 204.351 550.464 204.593 550.695C204.836 550.926 205.133 551.042 205.485 551.042Z" fill="white"/>
<path d="M262.204 527.671H264.966V543.01H262.204V527.671ZM252.688 529.135H255.682C255.682 536.721 250.458 541.579 241.674 543.709L240.709 541.446C248.495 539.649 252.688 535.69 252.688 530.499V529.135ZM242.273 529.135H253.952V531.397H242.273V529.135ZM254.618 531.996H262.67V534.192H254.618V531.996ZM254.351 537.753H262.504V539.916H254.351V537.753ZM245.6 544.408H264.966V551.795H248.429V556.586H245.7V549.665H262.237V546.637H245.6V544.408ZM245.7 555.255H265.964V557.451H245.7V555.255ZM284.961 533.959H292.082V536.255H284.961V533.959ZM277.009 529.201H279.271V532.329C279.271 538.119 276.044 542.877 270.986 544.807L269.555 542.611C274.081 540.947 277.009 536.921 277.009 532.329V529.201ZM277.508 529.201H279.737V532.462C279.737 536.588 282.732 540.448 287.058 541.979L285.593 544.141C280.769 542.311 277.508 537.753 277.508 532.462V529.201ZM274.18 547.103H294.245V557.751H291.483V549.332H274.18V547.103ZM291.483 527.671H294.245V545.439H291.483V527.671Z" fill="white"/>
<line y1="0.978617" x2="319.043" y2="0.978617" stroke="#8E8E92" stroke-width="1.95732" stroke-dasharray="4.89 3.91"/>
<line y1="247.601" x2="319.043" y2="247.601" stroke="#8E8E92" stroke-width="1.95732" stroke-dasharray="4.89 3.91"/>
<line y1="494.223" x2="319.043" y2="494.223" stroke="#8E8E92" stroke-width="1.95732" stroke-dasharray="4.89 3.91"/>
<path d="M159.808 605.503C160.19 605.885 160.81 605.885 161.192 605.503L167.42 599.275C167.802 598.893 167.802 598.273 167.42 597.891C167.038 597.509 166.418 597.509 166.036 597.891L160.5 603.427L154.964 597.891C154.582 597.509 153.962 597.509 153.58 597.891C153.198 598.273 153.198 598.893 153.58 599.275L159.808 605.503ZM159.521 4.27785e-08L159.521 604.811L161.479 604.811L161.479 -4.27785e-08L159.521 4.27785e-08Z" fill="#8E8E92"/>
<defs>
<linearGradient id="paint0_linear_51_285" x1="-3.38776e-06" y1="117.439" x2="319.043" y2="119.396" gradientUnits="userSpaceOnUse">
<stop stop-color="#66CB67"/>
<stop offset="1" stop-color="#66CB67" stop-opacity="0"/>
</linearGradient>
</defs>
</svg>
